<svg xmlns="http://www.w3.org/2000/svg" xmlns:xlink="http://www.w3.org/1999/xlink" width="100%" height="100%" version="1.1" viewBox="0 0 1440 670" xml:space="preserve" style="fill-rule:evenodd;clip-rule:evenodd;stroke-linejoin:round;stroke-miterlimit:2"><g><clipPath id="_clip1"><rect width="1440" height="670" x="0" y="0"/></clipPath><g clip-path="url(#_clip1)"><g opacity=".4"><g opacity=".6"><path d="M1019.8,-54.722C969.738,-45.925 930.592,-22.64 915.048,5.767C899.949,33.359 914.623,62.472 942.43,86.673C969.963,110.637 1010.75,130.48 1060.99,132.784C1110.15,135.038 1152.95,117.889 1187.49,97.91C1222.08,77.91 1252.64,53.221 1246.68,25.401C1240.7,-2.445 1200.51,-22.2 1158.55,-37.019C1116.2,-51.974 1067.44,-63.093 1019.8,-54.722Z" style="fill:url(#_Linear2);fill-rule:nonzero"/></g><g opacity=".9"><path d="M723.072,-222.412C652.377,-210.959 613.095,-169.156 573.408,-131.725C536.259,-96.689 499.957,-59.914 506.777,-18.413C514.024,25.675 553.082,65.47 610.312,92.821C670.407,121.541 745.395,137.489 821.218,131.863C900.468,125.983 980.252,104.023 1021.34,62.328C1060.46,22.623 1035.59,-25.812 1021.42,-71.309C1007.7,-115.394 998.946,-162.806 942.302,-191.494C882.344,-221.861 798.43,-234.622 723.072,-222.412Z" style="fill:url(#_Linear3);fill-rule:nonzero"/></g><g><path d="M542.877,-69.919C503.932,-68.18 464.085,-49.754 447.886,-21.026C433.064,5.258 455.396,33.927 469.32,60.53C478.816,78.671 492.852,94.404 513.655,104.629C532.435,113.859 554.302,111.583 576.196,113.06C610.274,115.358 647.98,132.641 674.833,115.499C703.605,97.132 709.602,61.776 701.974,32.762C694.698,5.098 664.034,-11.824 636.716,-29.455C607.907,-48.047 579.664,-71.561 542.877,-69.919Z" style="fill:url(#_Linear4);fill-rule:nonzero"/></g><g opacity=".9"><path d="M339.407,-97.894C283.144,-82.83 230.686,-44.544 215.869,0.199C202.316,41.134 243.67,73.254 272.136,105.272C291.546,127.108 316.839,144.155 350.313,151.433C380.53,158.002 411.72,147.758 444.101,142.66C494.502,134.727 554.789,146.201 588.692,113.909C625.016,79.309 622.923,28.782 602.9,-8.598C583.808,-44.239 533.9,-57.508 488.657,-72.84C440.945,-89.008 392.548,-112.123 339.407,-97.894Z" style="fill:url(#_Linear5);fill-rule:nonzero"/></g></g></g></g><defs><linearGradient id="_Linear2" x1="0" x2="1" y1="0" y2="0" gradientTransform="matrix(345.03,155.472,-155.472,345.03,1012.46,9.6661)" gradientUnits="userSpaceOnUse"><stop offset="0" style="stop-color:#ffe8c7;stop-opacity:1"/><stop offset="1" style="stop-color:#ffa400;stop-opacity:1"/></linearGradient><linearGradient id="_Linear3" x1="0" x2="1" y1="0" y2="0" gradientTransform="matrix(448.333,203.743,-203.743,448.333,731.257,-17.5942)" gradientUnits="userSpaceOnUse"><stop offset="0" style="stop-color:#f09;stop-opacity:1"/><stop offset="1" style="stop-color:#ff002a;stop-opacity:1"/></linearGradient><linearGradient id="_Linear4" x1="0" x2="1" y1="0" y2="0" gradientTransform="matrix(262,0,0,193,443,26.5001)" gradientUnits="userSpaceOnUse"><stop offset="0" style="stop-color:white;stop-opacity:.6"/><stop offset="1" style="stop-color:#8900ff;stop-opacity:.6"/></linearGradient><linearGradient id="_Linear5" x1="0" x2="1" y1="0" y2="0" gradientTransform="matrix(275.722,-23.1982,23.1982,275.722,257.683,40.5617)" gradientUnits="userSpaceOnUse"><stop offset="0" style="stop-color:#99fff3;stop-opacity:.6"/><stop offset="1" style="stop-color:#0038ff;stop-opacity:.6"/></linearGradient></defs></svg>